<svg width="23" height="40" viewBox="0 0 23 40" fill="none" xmlns="http://www.w3.org/2000/svg">
<path d="M7.24388 1.57226L7.54431 3.84234L9.79611 4.25811L7.72998 5.24532L8.0304 7.5154L6.45304 5.85546L4.3869 6.84267L5.47817 4.82955L3.9008 3.16961L6.15261 3.58538L7.24388 1.57226Z" fill="black"/>
<path d="M2.08177 27.3663L4.18427 28.2735L5.69677 26.5542L5.48369 28.8342L7.5862 29.7413L5.35201 30.2432L5.13893 32.5232L3.9712 30.5534L1.73701 31.0553L3.2495 29.3361L2.08177 27.3663Z" fill="black"/>
<line x1="11" y1="0.5" x2="23" y2="0.500001" stroke="black"/>
<line x1="10" y1="5.5" x2="18" y2="5.5" stroke="black"/>
<line x1="14" y1="14.5" x2="20" y2="14.5" stroke="black"/>
<line x1="10" y1="39.5" x2="20" y2="39.5" stroke="black"/>
<line x1="8" y1="29.5" x2="15" y2="29.5" stroke="black"/>
<line x1="12" y1="34.5" x2="22" y2="34.5" stroke="black"/>
</svg>
