<svg width="1678" height="66" viewBox="0 0 1678 66" fill="none" xmlns="http://www.w3.org/2000/svg">
<g clip-path="url(#clip0_114_661)">
<path d="M1639.75 56.2H1636.35C1635.88 56.2 1635.5 56.5808 1635.5 57.0499C1635.5 57.5191 1635.88 57.8999 1636.35 57.8999H1639.75C1640.22 57.8999 1640.6 57.5191 1640.6 57.0499C1640.6 56.5808 1640.22 56.2 1639.75 56.2Z" fill="black"/>
<path d="M1639.75 51.1001H1631.25C1630.78 51.1001 1630.4 51.4809 1630.4 51.9501C1630.4 52.4192 1630.78 52.8 1631.25 52.8H1639.75C1640.22 52.8 1640.6 52.4192 1640.6 51.9501C1640.6 51.4809 1640.22 51.1001 1639.75 51.1001Z" fill="black"/>
<path d="M1639.75 46H1634.65C1634.18 46 1633.8 46.3808 1633.8 46.85C1633.8 47.3191 1634.18 47.7 1634.65 47.7H1639.75C1640.22 47.7 1640.6 47.3192 1640.6 46.8501C1640.6 46.3809 1640.22 46 1639.75 46Z" fill="black"/>
<path d="M1636.35 23.9001H1639.75C1640.22 23.9001 1640.6 23.5193 1640.6 23.0502C1640.6 22.581 1640.22 22.2002 1639.75 22.2002H1636.35C1635.88 22.2002 1635.5 22.581 1635.5 23.0502C1635.5 23.5193 1635.88 23.9001 1636.35 23.9001Z" fill="black"/>
<path d="M1644.85 25.6001C1645.32 25.6001 1645.7 25.2193 1645.7 24.7501V18.8001H1649.55C1649.66 18.8001 1649.92 18.9488 1650.02 19.1792L1652.57 25.0868C1652.71 25.4081 1653.02 25.6002 1653.35 25.6002C1653.46 25.6002 1653.58 25.5781 1653.69 25.5304C1654.12 25.3443 1654.32 24.8445 1654.13 24.4135L1651.58 18.5017C1651.22 17.6891 1650.37 17.1001 1649.55 17.1001H1645.7C1644.76 17.1001 1644 17.8812 1644 18.8426V24.7501C1644 25.2193 1644.38 25.6001 1644.85 25.6001Z" fill="black"/>
<path d="M1645.7 32.4C1645.7 31.4625 1644.94 30.7 1644 30.7C1643.06 30.7 1642.3 31.4624 1642.3 32.4C1642.3 33.3376 1643.06 34.1 1644 34.1C1644.94 34.1 1645.7 33.3375 1645.7 32.4Z" fill="black"/>
<path d="M1638.05 18.8H1639.75C1640.22 18.8 1640.6 18.4192 1640.6 17.9501C1640.6 17.4809 1640.22 17.1001 1639.75 17.1001H1638.05C1637.58 17.1001 1637.2 17.4809 1637.2 17.9501C1637.2 18.4192 1637.58 18.8 1638.05 18.8Z" fill="black"/>
<path d="M1659.3 30.7C1658.36 30.7 1657.6 31.4624 1657.6 32.4C1657.6 33.3376 1658.36 34.1 1659.3 34.1C1660.24 34.1 1661 33.3376 1661 32.4C1661 31.4624 1660.24 30.7 1659.3 30.7Z" fill="black"/>
<path d="M1661.85 40.9001H1672.05C1672.52 40.9001 1672.9 40.5193 1672.9 40.0502C1672.9 39.581 1672.52 39.2002 1672.05 39.2002H1661.85C1661.38 39.2002 1661 39.581 1661 40.0502C1661 40.5193 1661.38 40.9001 1661.85 40.9001Z" fill="black"/>
<path d="M1637.2 32.4C1637.2 33.3375 1637.96 34.1 1638.9 34.1C1639.84 34.1 1640.6 33.3376 1640.6 32.4C1640.6 31.4624 1639.84 30.7 1638.9 30.7C1637.96 30.7 1637.2 31.4625 1637.2 32.4Z" fill="black"/>
<path d="M1655.9 32.4C1655.9 31.4625 1655.14 30.7 1654.2 30.7C1653.26 30.7 1652.5 31.4624 1652.5 32.4C1652.5 33.3376 1653.26 34.1 1654.2 34.1C1655.14 34.1 1655.9 33.3375 1655.9 32.4Z" fill="black"/>
<path d="M1672.74 32.4401C1672.19 30.3602 1670.48 27.3002 1666.95 27.3002H1633.88L1632.4 23.5976C1632.08 22.7621 1631.28 22.2002 1630.4 22.2002H1628.7C1627.76 22.2002 1627 22.9626 1627 23.9002V29.8502C1627 37.9532 1633.35 44.3002 1641.45 44.3002C1641.92 44.3002 1642.3 43.9194 1642.3 43.4503C1642.3 42.9811 1641.92 42.6003 1641.45 42.6003C1634.3 42.6003 1628.7 36.9997 1628.7 29.8503V23.9003H1630.4C1630.52 23.9003 1630.73 23.9811 1630.82 24.2165L1632.52 28.4665C1632.65 28.7887 1632.96 29.0003 1633.31 29.0003H1662.89L1663.58 31.7569C1663.58 31.7901 1663.59 31.8233 1663.61 31.8555C1664.14 33.2402 1665.26 34.1003 1666.54 34.1003H1668.65C1669.12 34.1003 1669.5 33.7195 1669.5 33.2504C1669.5 32.7812 1669.12 32.4004 1668.65 32.4004H1666.54C1665.76 32.4004 1665.36 31.6575 1665.21 31.2902L1664.64 29.0003H1666.95C1670.42 29.0003 1671.18 33.2129 1671.21 33.3906C1671.28 33.7995 1671.63 34.1003 1672.05 34.1003C1674.39 34.1003 1676.3 36.0069 1676.3 38.3504C1676.3 40.6939 1674.39 42.6004 1672.05 42.6004H1658.18L1659.22 40.4142C1659.42 39.99 1659.24 39.4834 1658.81 39.282C1658.39 39.0823 1657.88 39.2616 1657.68 39.6866L1650.03 55.846C1649.93 56.0483 1649.67 56.2004 1649.55 56.2004H1645.7V40.9004H1655.05C1655.52 40.9004 1655.9 40.5196 1655.9 40.0504C1655.9 39.5812 1655.52 39.2004 1655.05 39.2004H1644.85C1644.38 39.2004 1644 39.5812 1644 40.0504V56.2004C1644 57.1379 1644.76 57.9004 1645.7 57.9004H1649.55C1650.36 57.9004 1651.21 57.3343 1651.57 56.5642L1657.38 44.3004H1672.05C1675.33 44.3004 1678 41.6314 1678 38.3505C1678 35.3038 1675.7 32.7836 1672.74 32.4401Z" fill="black"/>
<path d="M1650.8 32.4C1650.8 31.4625 1650.04 30.7 1649.1 30.7C1648.16 30.7 1647.4 31.4624 1647.4 32.4C1647.4 33.3376 1648.16 34.1 1649.1 34.1C1650.04 34.1 1650.8 33.3375 1650.8 32.4Z" fill="black"/>
</g>
<path d="M1594.24 18.5723L1594.54 20.8423L1596.8 21.2581L1594.73 22.2453L1595.03 24.5154L1593.45 22.8555L1591.39 23.8427L1592.48 21.8296L1590.9 20.1696L1593.15 20.5854L1594.24 18.5723Z" fill="black"/>
<path d="M1589.08 44.3663L1591.18 45.2735L1592.7 43.5542L1592.48 45.8342L1594.59 46.7413L1592.35 47.2432L1592.14 49.5232L1590.97 47.5534L1588.74 48.0553L1590.25 46.3361L1589.08 44.3663Z" fill="black"/>
<line x1="1598" y1="17.5" x2="1610" y2="17.5" stroke="black"/>
<line x1="1597" y1="22.5" x2="1605" y2="22.5" stroke="black"/>
<line x1="1601" y1="31.5" x2="1607" y2="31.5" stroke="black"/>
<line x1="1597" y1="56.5" x2="1607" y2="56.5" stroke="black"/>
<line x1="1595" y1="46.5" x2="1602" y2="46.5" stroke="black"/>
<line x1="1599" y1="51.5" x2="1609" y2="51.5" stroke="black"/>
<path d="M1571.24 14.5723L1571.54 16.8423L1573.8 17.2581L1571.73 18.2453L1572.03 20.5154L1570.45 18.8555L1568.39 19.8427L1569.48 17.8296L1567.9 16.1696L1570.15 16.5854L1571.24 14.5723Z" fill="black"/>
<path d="M1566.08 40.3663L1568.18 41.2735L1569.7 39.5542L1569.48 41.8342L1571.59 42.7413L1569.35 43.2432L1569.14 45.5232L1567.97 43.5534L1565.74 44.0553L1567.25 42.3361L1566.08 40.3663Z" fill="black"/>
<line x1="1575" y1="13.5" x2="1587" y2="13.5" stroke="black"/>
<line x1="1574" y1="18.5" x2="1582" y2="18.5" stroke="black"/>
<line x1="1578" y1="27.5" x2="1584" y2="27.5" stroke="black"/>
<line x1="1574" y1="52.5" x2="1584" y2="52.5" stroke="black"/>
<line x1="1572" y1="42.5" x2="1579" y2="42.5" stroke="black"/>
<line x1="1576" y1="47.5" x2="1586" y2="47.5" stroke="black"/>
<path d="M1547.24 27.5723L1547.54 29.8423L1549.8 30.2581L1547.73 31.2453L1548.03 33.5154L1546.45 31.8555L1544.39 32.8427L1545.48 30.8296L1543.9 29.1696L1546.15 29.5854L1547.24 27.5723Z" fill="black"/>
<path d="M1542.08 53.3663L1544.18 54.2735L1545.7 52.5542L1545.48 54.8342L1547.59 55.7413L1545.35 56.2432L1545.14 58.5232L1543.97 56.5534L1541.74 57.0553L1543.25 55.3361L1542.08 53.3663Z" fill="black"/>
<line x1="1551" y1="26.5" x2="1563" y2="26.5" stroke="black"/>
<line x1="1550" y1="31.5" x2="1558" y2="31.5" stroke="black"/>
<line x1="1554" y1="40.5" x2="1560" y2="40.5" stroke="black"/>
<line x1="1550" y1="65.5" x2="1560" y2="65.5" stroke="black"/>
<line x1="1548" y1="55.5" x2="1555" y2="55.5" stroke="black"/>
<line x1="1552" y1="60.5" x2="1562" y2="60.5" stroke="black"/>
<path d="M1525.24 18.5723L1525.54 20.8423L1527.8 21.2581L1525.73 22.2453L1526.03 24.5154L1524.45 22.8555L1522.39 23.8427L1523.48 21.8296L1521.9 20.1696L1524.15 20.5854L1525.24 18.5723Z" fill="black"/>
<path d="M1520.08 44.3663L1522.18 45.2735L1523.7 43.5542L1523.48 45.8342L1525.59 46.7413L1523.35 47.2432L1523.14 49.5232L1521.97 47.5534L1519.74 48.0553L1521.25 46.3361L1520.08 44.3663Z" fill="black"/>
<line x1="1529" y1="17.5" x2="1541" y2="17.5" stroke="black"/>
<line x1="1528" y1="22.5" x2="1536" y2="22.5" stroke="black"/>
<line x1="1532" y1="31.5" x2="1538" y2="31.5" stroke="black"/>
<line x1="1528" y1="56.5" x2="1538" y2="56.5" stroke="black"/>
<line x1="1526" y1="46.5" x2="1533" y2="46.5" stroke="black"/>
<line x1="1530" y1="51.5" x2="1540" y2="51.5" stroke="black"/>
<path d="M1502.24 14.5723L1502.54 16.8423L1504.8 17.2581L1502.73 18.2453L1503.03 20.5154L1501.45 18.8555L1499.39 19.8427L1500.48 17.8296L1498.9 16.1696L1501.15 16.5854L1502.24 14.5723Z" fill="black"/>
<path d="M1497.08 40.3663L1499.18 41.2735L1500.7 39.5542L1500.48 41.8342L1502.59 42.7413L1500.35 43.2432L1500.14 45.5232L1498.97 43.5534L1496.74 44.0553L1498.25 42.3361L1497.08 40.3663Z" fill="black"/>
<line x1="1506" y1="13.5" x2="1518" y2="13.5" stroke="black"/>
<line x1="1505" y1="18.5" x2="1513" y2="18.5" stroke="black"/>
<line x1="1509" y1="27.5" x2="1515" y2="27.5" stroke="black"/>
<line x1="1505" y1="52.5" x2="1515" y2="52.5" stroke="black"/>
<line x1="1503" y1="42.5" x2="1510" y2="42.5" stroke="black"/>
<line x1="1507" y1="47.5" x2="1517" y2="47.5" stroke="black"/>
<path d="M1478.24 27.5723L1478.54 29.8423L1480.8 30.2581L1478.73 31.2453L1479.03 33.5154L1477.45 31.8555L1475.39 32.8427L1476.48 30.8296L1474.9 29.1696L1477.15 29.5854L1478.24 27.5723Z" fill="black"/>
<path d="M1473.08 53.3663L1475.18 54.2735L1476.7 52.5542L1476.48 54.8342L1478.59 55.7413L1476.35 56.2432L1476.14 58.5232L1474.97 56.5534L1472.74 57.0553L1474.25 55.3361L1473.08 53.3663Z" fill="black"/>
<line x1="1482" y1="26.5" x2="1494" y2="26.5" stroke="black"/>
<line x1="1481" y1="31.5" x2="1489" y2="31.5" stroke="black"/>
<line x1="1485" y1="40.5" x2="1491" y2="40.5" stroke="black"/>
<line x1="1481" y1="65.5" x2="1491" y2="65.5" stroke="black"/>
<line x1="1479" y1="55.5" x2="1486" y2="55.5" stroke="black"/>
<line x1="1483" y1="60.5" x2="1493" y2="60.5" stroke="black"/>
<path d="M1455.24 14.5723L1455.54 16.8423L1457.8 17.2581L1455.73 18.2453L1456.03 20.5154L1454.45 18.8555L1452.39 19.8427L1453.48 17.8296L1451.9 16.1696L1454.15 16.5854L1455.24 14.5723Z" fill="black"/>
<path d="M1450.08 40.3663L1452.18 41.2735L1453.7 39.5542L1453.48 41.8342L1455.59 42.7413L1453.35 43.2432L1453.14 45.5232L1451.97 43.5534L1449.74 44.0553L1451.25 42.3361L1450.08 40.3663Z" fill="black"/>
<line x1="1459" y1="13.5" x2="1471" y2="13.5" stroke="black"/>
<line x1="1458" y1="18.5" x2="1466" y2="18.5" stroke="black"/>
<line x1="1462" y1="27.5" x2="1468" y2="27.5" stroke="black"/>
<line x1="1458" y1="52.5" x2="1468" y2="52.5" stroke="black"/>
<line x1="1456" y1="42.5" x2="1463" y2="42.5" stroke="black"/>
<line x1="1460" y1="47.5" x2="1470" y2="47.5" stroke="black"/>
<path d="M1432.24 10.5723L1432.54 12.8423L1434.8 13.2581L1432.73 14.2453L1433.03 16.5154L1431.45 14.8555L1429.39 15.8427L1430.48 13.8296L1428.9 12.1696L1431.15 12.5854L1432.24 10.5723Z" fill="black"/>
<path d="M1427.08 36.3663L1429.18 37.2735L1430.7 35.5542L1430.48 37.8342L1432.59 38.7413L1430.35 39.2432L1430.14 41.5232L1428.97 39.5534L1426.74 40.0553L1428.25 38.3361L1427.08 36.3663Z" fill="black"/>
<line x1="1436" y1="9.5" x2="1448" y2="9.5" stroke="black"/>
<line x1="1435" y1="14.5" x2="1443" y2="14.5" stroke="black"/>
<line x1="1439" y1="23.5" x2="1445" y2="23.5" stroke="black"/>
<line x1="1435" y1="48.5" x2="1445" y2="48.5" stroke="black"/>
<line x1="1433" y1="38.5" x2="1440" y2="38.5" stroke="black"/>
<line x1="1437" y1="43.5" x2="1447" y2="43.5" stroke="black"/>
<path d="M1408.24 23.5723L1408.54 25.8423L1410.8 26.2581L1408.73 27.2453L1409.03 29.5154L1407.45 27.8555L1405.39 28.8427L1406.48 26.8296L1404.9 25.1696L1407.15 25.5854L1408.24 23.5723Z" fill="black"/>
<path d="M1403.08 49.3663L1405.18 50.2735L1406.7 48.5542L1406.48 50.8342L1408.59 51.7413L1406.35 52.2432L1406.14 54.5232L1404.97 52.5534L1402.74 53.0553L1404.25 51.3361L1403.08 49.3663Z" fill="black"/>
<line x1="1412" y1="22.5" x2="1424" y2="22.5" stroke="black"/>
<line x1="1411" y1="27.5" x2="1419" y2="27.5" stroke="black"/>
<line x1="1415" y1="36.5" x2="1421" y2="36.5" stroke="black"/>
<line x1="1411" y1="61.5" x2="1421" y2="61.5" stroke="black"/>
<line x1="1409" y1="51.5" x2="1416" y2="51.5" stroke="black"/>
<line x1="1413" y1="56.5" x2="1423" y2="56.5" stroke="black"/>
<path d="M1384.24 18.5723L1384.54 20.8423L1386.8 21.2581L1384.73 22.2453L1385.03 24.5154L1383.45 22.8555L1381.39 23.8427L1382.48 21.8296L1380.9 20.1696L1383.15 20.5854L1384.24 18.5723Z" fill="black"/>
<path d="M1379.08 44.3663L1381.18 45.2735L1382.7 43.5542L1382.48 45.8342L1384.59 46.7413L1382.35 47.2432L1382.14 49.5232L1380.97 47.5534L1378.74 48.0553L1380.25 46.3361L1379.08 44.3663Z" fill="black"/>
<line x1="1388" y1="17.5" x2="1400" y2="17.5" stroke="black"/>
<line x1="1387" y1="22.5" x2="1395" y2="22.5" stroke="black"/>
<line x1="1391" y1="31.5" x2="1397" y2="31.5" stroke="black"/>
<line x1="1387" y1="56.5" x2="1397" y2="56.5" stroke="black"/>
<line x1="1385" y1="46.5" x2="1392" y2="46.5" stroke="black"/>
<line x1="1389" y1="51.5" x2="1399" y2="51.5" stroke="black"/>
<path d="M1361.24 14.5723L1361.54 16.8423L1363.8 17.2581L1361.73 18.2453L1362.03 20.5154L1360.45 18.8555L1358.39 19.8427L1359.48 17.8296L1357.9 16.1696L1360.15 16.5854L1361.24 14.5723Z" fill="black"/>
<path d="M1356.08 40.3663L1358.18 41.2735L1359.7 39.5542L1359.48 41.8342L1361.59 42.7413L1359.35 43.2432L1359.14 45.5232L1357.97 43.5534L1355.74 44.0553L1357.25 42.3361L1356.08 40.3663Z" fill="black"/>
<line x1="1365" y1="13.5" x2="1377" y2="13.5" stroke="black"/>
<line x1="1364" y1="18.5" x2="1372" y2="18.5" stroke="black"/>
<line x1="1368" y1="27.5" x2="1374" y2="27.5" stroke="black"/>
<line x1="1364" y1="52.5" x2="1374" y2="52.5" stroke="black"/>
<line x1="1362" y1="42.5" x2="1369" y2="42.5" stroke="black"/>
<line x1="1366" y1="47.5" x2="1376" y2="47.5" stroke="black"/>
<path d="M1337.24 27.5723L1337.54 29.8423L1339.8 30.2581L1337.73 31.2453L1338.03 33.5154L1336.45 31.8555L1334.39 32.8427L1335.48 30.8296L1333.9 29.1696L1336.15 29.5854L1337.24 27.5723Z" fill="black"/>
<path d="M1332.08 53.3663L1334.18 54.2735L1335.7 52.5542L1335.48 54.8342L1337.59 55.7413L1335.35 56.2432L1335.14 58.5232L1333.97 56.5534L1331.74 57.0553L1333.25 55.3361L1332.08 53.3663Z" fill="black"/>
<line x1="1341" y1="26.5" x2="1353" y2="26.5" stroke="black"/>
<line x1="1340" y1="31.5" x2="1348" y2="31.5" stroke="black"/>
<line x1="1344" y1="40.5" x2="1350" y2="40.5" stroke="black"/>
<line x1="1340" y1="65.5" x2="1350" y2="65.5" stroke="black"/>
<line x1="1338" y1="55.5" x2="1345" y2="55.5" stroke="black"/>
<line x1="1342" y1="60.5" x2="1352" y2="60.5" stroke="black"/>
<path d="M1315.24 18.5723L1315.54 20.8423L1317.8 21.2581L1315.73 22.2453L1316.03 24.5154L1314.45 22.8555L1312.39 23.8427L1313.48 21.8296L1311.9 20.1696L1314.15 20.5854L1315.24 18.5723Z" fill="black"/>
<path d="M1310.08 44.3663L1312.18 45.2735L1313.7 43.5542L1313.48 45.8342L1315.59 46.7413L1313.35 47.2432L1313.14 49.5232L1311.97 47.5534L1309.74 48.0553L1311.25 46.3361L1310.08 44.3663Z" fill="black"/>
<line x1="1319" y1="17.5" x2="1331" y2="17.5" stroke="black"/>
<line x1="1318" y1="22.5" x2="1326" y2="22.5" stroke="black"/>
<line x1="1322" y1="31.5" x2="1328" y2="31.5" stroke="black"/>
<line x1="1318" y1="56.5" x2="1328" y2="56.5" stroke="black"/>
<line x1="1316" y1="46.5" x2="1323" y2="46.5" stroke="black"/>
<line x1="1320" y1="51.5" x2="1330" y2="51.5" stroke="black"/>
<path d="M1292.24 14.5723L1292.54 16.8423L1294.8 17.2581L1292.73 18.2453L1293.03 20.5154L1291.45 18.8555L1289.39 19.8427L1290.48 17.8296L1288.9 16.1696L1291.15 16.5854L1292.24 14.5723Z" fill="black"/>
<path d="M1287.08 40.3663L1289.18 41.2735L1290.7 39.5542L1290.48 41.8342L1292.59 42.7413L1290.35 43.2432L1290.14 45.5232L1288.97 43.5534L1286.74 44.0553L1288.25 42.3361L1287.08 40.3663Z" fill="black"/>
<line x1="1296" y1="13.5" x2="1308" y2="13.5" stroke="black"/>
<line x1="1295" y1="18.5" x2="1303" y2="18.5" stroke="black"/>
<line x1="1299" y1="27.5" x2="1305" y2="27.5" stroke="black"/>
<line x1="1295" y1="52.5" x2="1305" y2="52.5" stroke="black"/>
<line x1="1293" y1="42.5" x2="1300" y2="42.5" stroke="black"/>
<line x1="1297" y1="47.5" x2="1307" y2="47.5" stroke="black"/>
<path d="M1268.24 27.5723L1268.54 29.8423L1270.8 30.2581L1268.73 31.2453L1269.03 33.5154L1267.45 31.8555L1265.39 32.8427L1266.48 30.8296L1264.9 29.1696L1267.15 29.5854L1268.24 27.5723Z" fill="black"/>
<path d="M1263.08 53.3663L1265.18 54.2735L1266.7 52.5542L1266.48 54.8342L1268.59 55.7413L1266.35 56.2432L1266.14 58.5232L1264.97 56.5534L1262.74 57.0553L1264.25 55.3361L1263.08 53.3663Z" fill="black"/>
<line x1="1272" y1="26.5" x2="1284" y2="26.5" stroke="black"/>
<line x1="1271" y1="31.5" x2="1279" y2="31.5" stroke="black"/>
<line x1="1275" y1="40.5" x2="1281" y2="40.5" stroke="black"/>
<line x1="1271" y1="65.5" x2="1281" y2="65.5" stroke="black"/>
<line x1="1269" y1="55.5" x2="1276" y2="55.5" stroke="black"/>
<line x1="1273" y1="60.5" x2="1283" y2="60.5" stroke="black"/>
<path d="M1245.24 14.5723L1245.54 16.8423L1247.8 17.2581L1245.73 18.2453L1246.03 20.5154L1244.45 18.8555L1242.39 19.8427L1243.48 17.8296L1241.9 16.1696L1244.15 16.5854L1245.24 14.5723Z" fill="black"/>
<path d="M1240.08 40.3663L1242.18 41.2735L1243.7 39.5542L1243.48 41.8342L1245.59 42.7413L1243.35 43.2432L1243.14 45.5232L1241.97 43.5534L1239.74 44.0553L1241.25 42.3361L1240.08 40.3663Z" fill="black"/>
<line x1="1249" y1="13.5" x2="1261" y2="13.5" stroke="black"/>
<line x1="1248" y1="18.5" x2="1256" y2="18.5" stroke="black"/>
<line x1="1252" y1="27.5" x2="1258" y2="27.5" stroke="black"/>
<line x1="1248" y1="52.5" x2="1258" y2="52.5" stroke="black"/>
<line x1="1246" y1="42.5" x2="1253" y2="42.5" stroke="black"/>
<line x1="1250" y1="47.5" x2="1260" y2="47.5" stroke="black"/>
<path d="M1222.24 10.5723L1222.54 12.8423L1224.8 13.2581L1222.73 14.2453L1223.03 16.5154L1221.45 14.8555L1219.39 15.8427L1220.48 13.8296L1218.9 12.1696L1221.15 12.5854L1222.24 10.5723Z" fill="black"/>
<path d="M1217.08 36.3663L1219.18 37.2735L1220.7 35.5542L1220.48 37.8342L1222.59 38.7413L1220.35 39.2432L1220.14 41.5232L1218.97 39.5534L1216.74 40.0553L1218.25 38.3361L1217.08 36.3663Z" fill="black"/>
<line x1="1226" y1="9.5" x2="1238" y2="9.5" stroke="black"/>
<line x1="1225" y1="14.5" x2="1233" y2="14.5" stroke="black"/>
<line x1="1229" y1="23.5" x2="1235" y2="23.5" stroke="black"/>
<line x1="1225" y1="48.5" x2="1235" y2="48.5" stroke="black"/>
<line x1="1223" y1="38.5" x2="1230" y2="38.5" stroke="black"/>
<line x1="1227" y1="43.5" x2="1237" y2="43.5" stroke="black"/>
<path d="M1198.24 23.5723L1198.54 25.8423L1200.8 26.2581L1198.73 27.2453L1199.03 29.5154L1197.45 27.8555L1195.39 28.8427L1196.48 26.8296L1194.9 25.1696L1197.15 25.5854L1198.24 23.5723Z" fill="black"/>
<path d="M1193.08 49.3663L1195.18 50.2735L1196.7 48.5542L1196.48 50.8342L1198.59 51.7413L1196.35 52.2432L1196.14 54.5232L1194.97 52.5534L1192.74 53.0553L1194.25 51.3361L1193.08 49.3663Z" fill="black"/>
<line x1="1202" y1="22.5" x2="1214" y2="22.5" stroke="black"/>
<line x1="1201" y1="27.5" x2="1209" y2="27.5" stroke="black"/>
<line x1="1205" y1="36.5" x2="1211" y2="36.5" stroke="black"/>
<line x1="1201" y1="61.5" x2="1211" y2="61.5" stroke="black"/>
<line x1="1199" y1="51.5" x2="1206" y2="51.5" stroke="black"/>
<line x1="1203" y1="56.5" x2="1213" y2="56.5" stroke="black"/>
<path d="M1174.24 18.5723L1174.54 20.8423L1176.8 21.2581L1174.73 22.2453L1175.03 24.5154L1173.45 22.8555L1171.39 23.8427L1172.48 21.8296L1170.9 20.1696L1173.15 20.5854L1174.24 18.5723Z" fill="black"/>
<path d="M1169.08 44.3663L1171.18 45.2735L1172.7 43.5542L1172.48 45.8342L1174.59 46.7413L1172.35 47.2432L1172.14 49.5232L1170.97 47.5534L1168.74 48.0553L1170.25 46.3361L1169.08 44.3663Z" fill="black"/>
<line x1="1178" y1="17.5" x2="1190" y2="17.5" stroke="black"/>
<line x1="1177" y1="22.5" x2="1185" y2="22.5" stroke="black"/>
<line x1="1181" y1="31.5" x2="1187" y2="31.5" stroke="black"/>
<line x1="1177" y1="56.5" x2="1187" y2="56.5" stroke="black"/>
<line x1="1175" y1="46.5" x2="1182" y2="46.5" stroke="black"/>
<line x1="1179" y1="51.5" x2="1189" y2="51.5" stroke="black"/>
<path d="M1151.24 14.5723L1151.54 16.8423L1153.8 17.2581L1151.73 18.2453L1152.03 20.5154L1150.45 18.8555L1148.39 19.8427L1149.48 17.8296L1147.9 16.1696L1150.15 16.5854L1151.24 14.5723Z" fill="black"/>
<path d="M1146.08 40.3663L1148.18 41.2735L1149.7 39.5542L1149.48 41.8342L1151.59 42.7413L1149.35 43.2432L1149.14 45.5232L1147.97 43.5534L1145.74 44.0553L1147.25 42.3361L1146.08 40.3663Z" fill="black"/>
<line x1="1155" y1="13.5" x2="1167" y2="13.5" stroke="black"/>
<line x1="1154" y1="18.5" x2="1162" y2="18.5" stroke="black"/>
<line x1="1158" y1="27.5" x2="1164" y2="27.5" stroke="black"/>
<line x1="1154" y1="52.5" x2="1164" y2="52.5" stroke="black"/>
<line x1="1152" y1="42.5" x2="1159" y2="42.5" stroke="black"/>
<line x1="1156" y1="47.5" x2="1166" y2="47.5" stroke="black"/>
<path d="M1127.24 27.5723L1127.54 29.8423L1129.8 30.2581L1127.73 31.2453L1128.03 33.5154L1126.45 31.8555L1124.39 32.8427L1125.48 30.8296L1123.9 29.1696L1126.15 29.5854L1127.24 27.5723Z" fill="black"/>
<path d="M1122.08 53.3663L1124.18 54.2735L1125.7 52.5542L1125.48 54.8342L1127.59 55.7413L1125.35 56.2432L1125.14 58.5232L1123.97 56.5534L1121.74 57.0553L1123.25 55.3361L1122.08 53.3663Z" fill="black"/>
<line x1="1131" y1="26.5" x2="1143" y2="26.5" stroke="black"/>
<line x1="1130" y1="31.5" x2="1138" y2="31.5" stroke="black"/>
<line x1="1134" y1="40.5" x2="1140" y2="40.5" stroke="black"/>
<line x1="1130" y1="65.5" x2="1140" y2="65.5" stroke="black"/>
<line x1="1128" y1="55.5" x2="1135" y2="55.5" stroke="black"/>
<line x1="1132" y1="60.5" x2="1142" y2="60.5" stroke="black"/>
<path d="M1105.24 18.5723L1105.54 20.8423L1107.8 21.2581L1105.73 22.2453L1106.03 24.5154L1104.45 22.8555L1102.39 23.8427L1103.48 21.8296L1101.9 20.1696L1104.15 20.5854L1105.24 18.5723Z" fill="black"/>
<path d="M1100.08 44.3663L1102.18 45.2735L1103.7 43.5542L1103.48 45.8342L1105.59 46.7413L1103.35 47.2432L1103.14 49.5232L1101.97 47.5534L1099.74 48.0553L1101.25 46.3361L1100.08 44.3663Z" fill="black"/>
<line x1="1109" y1="17.5" x2="1121" y2="17.5" stroke="black"/>
<line x1="1108" y1="22.5" x2="1116" y2="22.5" stroke="black"/>
<line x1="1112" y1="31.5" x2="1118" y2="31.5" stroke="black"/>
<line x1="1108" y1="56.5" x2="1118" y2="56.5" stroke="black"/>
<line x1="1106" y1="46.5" x2="1113" y2="46.5" stroke="black"/>
<line x1="1110" y1="51.5" x2="1120" y2="51.5" stroke="black"/>
<path d="M1082.24 14.5723L1082.54 16.8423L1084.8 17.2581L1082.73 18.2453L1083.03 20.5154L1081.45 18.8555L1079.39 19.8427L1080.48 17.8296L1078.9 16.1696L1081.15 16.5854L1082.24 14.5723Z" fill="black"/>
<path d="M1077.08 40.3663L1079.18 41.2735L1080.7 39.5542L1080.48 41.8342L1082.59 42.7413L1080.35 43.2432L1080.14 45.5232L1078.97 43.5534L1076.74 44.0553L1078.25 42.3361L1077.08 40.3663Z" fill="black"/>
<line x1="1086" y1="13.5" x2="1098" y2="13.5" stroke="black"/>
<line x1="1085" y1="18.5" x2="1093" y2="18.5" stroke="black"/>
<line x1="1089" y1="27.5" x2="1095" y2="27.5" stroke="black"/>
<line x1="1085" y1="52.5" x2="1095" y2="52.5" stroke="black"/>
<line x1="1083" y1="42.5" x2="1090" y2="42.5" stroke="black"/>
<line x1="1087" y1="47.5" x2="1097" y2="47.5" stroke="black"/>
<path d="M1058.24 27.5723L1058.54 29.8423L1060.8 30.2581L1058.73 31.2453L1059.03 33.5154L1057.45 31.8555L1055.39 32.8427L1056.48 30.8296L1054.9 29.1696L1057.15 29.5854L1058.24 27.5723Z" fill="black"/>
<path d="M1053.08 53.3663L1055.18 54.2735L1056.7 52.5542L1056.48 54.8342L1058.59 55.7413L1056.35 56.2432L1056.14 58.5232L1054.97 56.5534L1052.74 57.0553L1054.25 55.3361L1053.08 53.3663Z" fill="black"/>
<line x1="1062" y1="26.5" x2="1074" y2="26.5" stroke="black"/>
<line x1="1061" y1="31.5" x2="1069" y2="31.5" stroke="black"/>
<line x1="1065" y1="40.5" x2="1071" y2="40.5" stroke="black"/>
<line x1="1061" y1="65.5" x2="1071" y2="65.5" stroke="black"/>
<line x1="1059" y1="55.5" x2="1066" y2="55.5" stroke="black"/>
<line x1="1063" y1="60.5" x2="1073" y2="60.5" stroke="black"/>
<path d="M1035.24 14.5723L1035.54 16.8423L1037.8 17.2581L1035.73 18.2453L1036.03 20.5154L1034.45 18.8555L1032.39 19.8427L1033.48 17.8296L1031.9 16.1696L1034.15 16.5854L1035.24 14.5723Z" fill="black"/>
<path d="M1030.08 40.3663L1032.18 41.2735L1033.7 39.5542L1033.48 41.8342L1035.59 42.7413L1033.35 43.2432L1033.14 45.5232L1031.97 43.5534L1029.74 44.0553L1031.25 42.3361L1030.08 40.3663Z" fill="black"/>
<line x1="1039" y1="13.5" x2="1051" y2="13.5" stroke="black"/>
<line x1="1038" y1="18.5" x2="1046" y2="18.5" stroke="black"/>
<line x1="1042" y1="27.5" x2="1048" y2="27.5" stroke="black"/>
<line x1="1038" y1="52.5" x2="1048" y2="52.5" stroke="black"/>
<line x1="1036" y1="42.5" x2="1043" y2="42.5" stroke="black"/>
<line x1="1040" y1="47.5" x2="1050" y2="47.5" stroke="black"/>
<path d="M1012.24 10.5723L1012.54 12.8423L1014.8 13.2581L1012.73 14.2453L1013.03 16.5154L1011.45 14.8555L1009.39 15.8427L1010.48 13.8296L1008.9 12.1696L1011.15 12.5854L1012.24 10.5723Z" fill="black"/>
<path d="M1007.08 36.3663L1009.18 37.2735L1010.7 35.5542L1010.48 37.8342L1012.59 38.7413L1010.35 39.2432L1010.14 41.5232L1008.97 39.5534L1006.74 40.0553L1008.25 38.3361L1007.08 36.3663Z" fill="black"/>
<line x1="1016" y1="9.5" x2="1028" y2="9.5" stroke="black"/>
<line x1="1015" y1="14.5" x2="1023" y2="14.5" stroke="black"/>
<line x1="1019" y1="23.5" x2="1025" y2="23.5" stroke="black"/>
<line x1="1015" y1="48.5" x2="1025" y2="48.5" stroke="black"/>
<line x1="1013" y1="38.5" x2="1020" y2="38.5" stroke="black"/>
<line x1="1017" y1="43.5" x2="1027" y2="43.5" stroke="black"/>
<path d="M988.244 23.5723L988.544 25.8423L990.796 26.2581L988.73 27.2453L989.03 29.5154L987.453 27.8555L985.387 28.8427L986.478 26.8296L984.901 25.1696L987.153 25.5854L988.244 23.5723Z" fill="black"/>
<path d="M983.082 49.3663L985.184 50.2735L986.697 48.5542L986.484 50.8342L988.586 51.7413L986.352 52.2432L986.139 54.5232L984.971 52.5534L982.737 53.0553L984.25 51.3361L983.082 49.3663Z" fill="black"/>
<line x1="992" y1="22.5" x2="1004" y2="22.5" stroke="black"/>
<line x1="991" y1="27.5" x2="999" y2="27.5" stroke="black"/>
<line x1="995" y1="36.5" x2="1001" y2="36.5" stroke="black"/>
<line x1="991" y1="61.5" x2="1001" y2="61.5" stroke="black"/>
<line x1="989" y1="51.5" x2="996" y2="51.5" stroke="black"/>
<line x1="993" y1="56.5" x2="1003" y2="56.5" stroke="black"/>
<path d="M964.244 18.5723L964.544 20.8423L966.796 21.2581L964.73 22.2453L965.03 24.5154L963.453 22.8555L961.387 23.8427L962.478 21.8296L960.901 20.1696L963.153 20.5854L964.244 18.5723Z" fill="black"/>
<path d="M959.082 44.3663L961.184 45.2735L962.697 43.5542L962.484 45.8342L964.586 46.7413L962.352 47.2432L962.139 49.5232L960.971 47.5534L958.737 48.0553L960.25 46.3361L959.082 44.3663Z" fill="black"/>
<line x1="968" y1="17.5" x2="980" y2="17.5" stroke="black"/>
<line x1="967" y1="22.5" x2="975" y2="22.5" stroke="black"/>
<line x1="971" y1="31.5" x2="977" y2="31.5" stroke="black"/>
<line x1="967" y1="56.5" x2="977" y2="56.5" stroke="black"/>
<line x1="965" y1="46.5" x2="972" y2="46.5" stroke="black"/>
<line x1="969" y1="51.5" x2="979" y2="51.5" stroke="black"/>
<path d="M941.244 14.5723L941.544 16.8423L943.796 17.2581L941.73 18.2453L942.03 20.5154L940.453 18.8555L938.387 19.8427L939.478 17.8296L937.901 16.1696L940.153 16.5854L941.244 14.5723Z" fill="black"/>
<path d="M936.082 40.3663L938.184 41.2735L939.697 39.5542L939.484 41.8342L941.586 42.7413L939.352 43.2432L939.139 45.5232L937.971 43.5534L935.737 44.0553L937.25 42.3361L936.082 40.3663Z" fill="black"/>
<line x1="945" y1="13.5" x2="957" y2="13.5" stroke="black"/>
<line x1="944" y1="18.5" x2="952" y2="18.5" stroke="black"/>
<line x1="948" y1="27.5" x2="954" y2="27.5" stroke="black"/>
<line x1="944" y1="52.5" x2="954" y2="52.5" stroke="black"/>
<line x1="942" y1="42.5" x2="949" y2="42.5" stroke="black"/>
<line x1="946" y1="47.5" x2="956" y2="47.5" stroke="black"/>
<path d="M917.244 27.5723L917.544 29.8423L919.796 30.2581L917.73 31.2453L918.03 33.5154L916.453 31.8555L914.387 32.8427L915.478 30.8296L913.901 29.1696L916.153 29.5854L917.244 27.5723Z" fill="black"/>
<path d="M912.082 53.3663L914.184 54.2735L915.697 52.5542L915.484 54.8342L917.586 55.7413L915.352 56.2432L915.139 58.5232L913.971 56.5534L911.737 57.0553L913.25 55.3361L912.082 53.3663Z" fill="black"/>
<line x1="921" y1="26.5" x2="933" y2="26.5" stroke="black"/>
<line x1="920" y1="31.5" x2="928" y2="31.5" stroke="black"/>
<line x1="924" y1="40.5" x2="930" y2="40.5" stroke="black"/>
<line x1="920" y1="65.5" x2="930" y2="65.5" stroke="black"/>
<line x1="918" y1="55.5" x2="925" y2="55.5" stroke="black"/>
<line x1="922" y1="60.5" x2="932" y2="60.5" stroke="black"/>
<path d="M895.244 18.5723L895.544 20.8423L897.796 21.2581L895.73 22.2453L896.03 24.5154L894.453 22.8555L892.387 23.8427L893.478 21.8296L891.901 20.1696L894.153 20.5854L895.244 18.5723Z" fill="black"/>
<path d="M890.082 44.3663L892.184 45.2735L893.697 43.5542L893.484 45.8342L895.586 46.7413L893.352 47.2432L893.139 49.5232L891.971 47.5534L889.737 48.0553L891.25 46.3361L890.082 44.3663Z" fill="black"/>
<line x1="899" y1="17.5" x2="911" y2="17.5" stroke="black"/>
<line x1="898" y1="22.5" x2="906" y2="22.5" stroke="black"/>
<line x1="902" y1="31.5" x2="908" y2="31.5" stroke="black"/>
<line x1="898" y1="56.5" x2="908" y2="56.5" stroke="black"/>
<line x1="896" y1="46.5" x2="903" y2="46.5" stroke="black"/>
<line x1="900" y1="51.5" x2="910" y2="51.5" stroke="black"/>
<path d="M872.244 14.5723L872.544 16.8423L874.796 17.2581L872.73 18.2453L873.03 20.5154L871.453 18.8555L869.387 19.8427L870.478 17.8296L868.901 16.1696L871.153 16.5854L872.244 14.5723Z" fill="black"/>
<path d="M867.082 40.3663L869.184 41.2735L870.697 39.5542L870.484 41.8342L872.586 42.7413L870.352 43.2432L870.139 45.5232L868.971 43.5534L866.737 44.0553L868.25 42.3361L867.082 40.3663Z" fill="black"/>
<line x1="876" y1="13.5" x2="888" y2="13.5" stroke="black"/>
<line x1="875" y1="18.5" x2="883" y2="18.5" stroke="black"/>
<line x1="879" y1="27.5" x2="885" y2="27.5" stroke="black"/>
<line x1="875" y1="52.5" x2="885" y2="52.5" stroke="black"/>
<line x1="873" y1="42.5" x2="880" y2="42.5" stroke="black"/>
<line x1="877" y1="47.5" x2="887" y2="47.5" stroke="black"/>
<path d="M848.244 27.5723L848.544 29.8423L850.796 30.2581L848.73 31.2453L849.03 33.5154L847.453 31.8555L845.387 32.8427L846.478 30.8296L844.901 29.1696L847.153 29.5854L848.244 27.5723Z" fill="black"/>
<path d="M843.082 53.3663L845.184 54.2735L846.697 52.5542L846.484 54.8342L848.586 55.7413L846.352 56.2432L846.139 58.5232L844.971 56.5534L842.737 57.0553L844.25 55.3361L843.082 53.3663Z" fill="black"/>
<line x1="852" y1="26.5" x2="864" y2="26.5" stroke="black"/>
<line x1="851" y1="31.5" x2="859" y2="31.5" stroke="black"/>
<line x1="855" y1="40.5" x2="861" y2="40.5" stroke="black"/>
<line x1="851" y1="65.5" x2="861" y2="65.5" stroke="black"/>
<line x1="849" y1="55.5" x2="856" y2="55.5" stroke="black"/>
<line x1="853" y1="60.5" x2="863" y2="60.5" stroke="black"/>
<path d="M825.244 14.5723L825.544 16.8423L827.796 17.2581L825.73 18.2453L826.03 20.5154L824.453 18.8555L822.387 19.8427L823.478 17.8296L821.901 16.1696L824.153 16.5854L825.244 14.5723Z" fill="black"/>
<path d="M820.082 40.3663L822.184 41.2735L823.697 39.5542L823.484 41.8342L825.586 42.7413L823.352 43.2432L823.139 45.5232L821.971 43.5534L819.737 44.0553L821.25 42.3361L820.082 40.3663Z" fill="black"/>
<line x1="829" y1="13.5" x2="841" y2="13.5" stroke="black"/>
<line x1="828" y1="18.5" x2="836" y2="18.5" stroke="black"/>
<line x1="832" y1="27.5" x2="838" y2="27.5" stroke="black"/>
<line x1="828" y1="52.5" x2="838" y2="52.5" stroke="black"/>
<line x1="826" y1="42.5" x2="833" y2="42.5" stroke="black"/>
<line x1="830" y1="47.5" x2="840" y2="47.5" stroke="black"/>
<path d="M802.244 10.5723L802.544 12.8423L804.796 13.2581L802.73 14.2453L803.03 16.5154L801.453 14.8555L799.387 15.8427L800.478 13.8296L798.901 12.1696L801.153 12.5854L802.244 10.5723Z" fill="black"/>
<path d="M797.082 36.3663L799.184 37.2735L800.697 35.5542L800.484 37.8342L802.586 38.7413L800.352 39.2432L800.139 41.5232L798.971 39.5534L796.737 40.0553L798.25 38.3361L797.082 36.3663Z" fill="black"/>
<line x1="806" y1="9.5" x2="818" y2="9.5" stroke="black"/>
<line x1="805" y1="14.5" x2="813" y2="14.5" stroke="black"/>
<line x1="809" y1="23.5" x2="815" y2="23.5" stroke="black"/>
<line x1="805" y1="48.5" x2="815" y2="48.5" stroke="black"/>
<line x1="803" y1="38.5" x2="810" y2="38.5" stroke="black"/>
<line x1="807" y1="43.5" x2="817" y2="43.5" stroke="black"/>
<path d="M778.244 23.5723L778.544 25.8423L780.796 26.2581L778.73 27.2453L779.03 29.5154L777.453 27.8555L775.387 28.8427L776.478 26.8296L774.901 25.1696L777.153 25.5854L778.244 23.5723Z" fill="black"/>
<path d="M773.082 49.3663L775.184 50.2735L776.697 48.5542L776.484 50.8342L778.586 51.7413L776.352 52.2432L776.139 54.5232L774.971 52.5534L772.737 53.0553L774.25 51.3361L773.082 49.3663Z" fill="black"/>
<line x1="782" y1="22.5" x2="794" y2="22.5" stroke="black"/>
<line x1="781" y1="27.5" x2="789" y2="27.5" stroke="black"/>
<line x1="785" y1="36.5" x2="791" y2="36.5" stroke="black"/>
<line x1="781" y1="61.5" x2="791" y2="61.5" stroke="black"/>
<line x1="779" y1="51.5" x2="786" y2="51.5" stroke="black"/>
<line x1="783" y1="56.5" x2="793" y2="56.5" stroke="black"/>
<path d="M754.244 18.5723L754.544 20.8423L756.796 21.2581L754.73 22.2453L755.03 24.5154L753.453 22.8555L751.387 23.8427L752.478 21.8296L750.901 20.1696L753.153 20.5854L754.244 18.5723Z" fill="black"/>
<path d="M749.082 44.3663L751.184 45.2735L752.697 43.5542L752.484 45.8342L754.586 46.7413L752.352 47.2432L752.139 49.5232L750.971 47.5534L748.737 48.0553L750.25 46.3361L749.082 44.3663Z" fill="black"/>
<line x1="758" y1="17.5" x2="770" y2="17.5" stroke="black"/>
<line x1="757" y1="22.5" x2="765" y2="22.5" stroke="black"/>
<line x1="761" y1="31.5" x2="767" y2="31.5" stroke="black"/>
<line x1="757" y1="56.5" x2="767" y2="56.5" stroke="black"/>
<line x1="755" y1="46.5" x2="762" y2="46.5" stroke="black"/>
<line x1="759" y1="51.5" x2="769" y2="51.5" stroke="black"/>
<path d="M731.244 14.5723L731.544 16.8423L733.796 17.2581L731.73 18.2453L732.03 20.5154L730.453 18.8555L728.387 19.8427L729.478 17.8296L727.901 16.1696L730.153 16.5854L731.244 14.5723Z" fill="black"/>
<path d="M726.082 40.3663L728.184 41.2735L729.697 39.5542L729.484 41.8342L731.586 42.7413L729.352 43.2432L729.139 45.5232L727.971 43.5534L725.737 44.0553L727.25 42.3361L726.082 40.3663Z" fill="black"/>
<line x1="735" y1="13.5" x2="747" y2="13.5" stroke="black"/>
<line x1="734" y1="18.5" x2="742" y2="18.5" stroke="black"/>
<line x1="738" y1="27.5" x2="744" y2="27.5" stroke="black"/>
<line x1="734" y1="52.5" x2="744" y2="52.5" stroke="black"/>
<line x1="732" y1="42.5" x2="739" y2="42.5" stroke="black"/>
<line x1="736" y1="47.5" x2="746" y2="47.5" stroke="black"/>
<path d="M707.244 27.5723L707.544 29.8423L709.796 30.2581L707.73 31.2453L708.03 33.5154L706.453 31.8555L704.387 32.8427L705.478 30.8296L703.901 29.1696L706.153 29.5854L707.244 27.5723Z" fill="black"/>
<path d="M702.082 53.3663L704.184 54.2735L705.697 52.5542L705.484 54.8342L707.586 55.7413L705.352 56.2432L705.139 58.5232L703.971 56.5534L701.737 57.0553L703.25 55.3361L702.082 53.3663Z" fill="black"/>
<line x1="711" y1="26.5" x2="723" y2="26.5" stroke="black"/>
<line x1="710" y1="31.5" x2="718" y2="31.5" stroke="black"/>
<line x1="714" y1="40.5" x2="720" y2="40.5" stroke="black"/>
<line x1="710" y1="65.5" x2="720" y2="65.5" stroke="black"/>
<line x1="708" y1="55.5" x2="715" y2="55.5" stroke="black"/>
<line x1="712" y1="60.5" x2="722" y2="60.5" stroke="black"/>
<path d="M685.244 18.5723L685.544 20.8423L687.796 21.2581L685.73 22.2453L686.03 24.5154L684.453 22.8555L682.387 23.8427L683.478 21.8296L681.901 20.1696L684.153 20.5854L685.244 18.5723Z" fill="black"/>
<path d="M680.082 44.3663L682.184 45.2735L683.697 43.5542L683.484 45.8342L685.586 46.7413L683.352 47.2432L683.139 49.5232L681.971 47.5534L679.737 48.0553L681.25 46.3361L680.082 44.3663Z" fill="black"/>
<line x1="689" y1="17.5" x2="701" y2="17.5" stroke="black"/>
<line x1="688" y1="22.5" x2="696" y2="22.5" stroke="black"/>
<line x1="692" y1="31.5" x2="698" y2="31.5" stroke="black"/>
<line x1="688" y1="56.5" x2="698" y2="56.5" stroke="black"/>
<line x1="686" y1="46.5" x2="693" y2="46.5" stroke="black"/>
<line x1="690" y1="51.5" x2="700" y2="51.5" stroke="black"/>
<path d="M662.244 14.5723L662.544 16.8423L664.796 17.2581L662.73 18.2453L663.03 20.5154L661.453 18.8555L659.387 19.8427L660.478 17.8296L658.901 16.1696L661.153 16.5854L662.244 14.5723Z" fill="black"/>
<path d="M657.082 40.3663L659.184 41.2735L660.697 39.5542L660.484 41.8342L662.586 42.7413L660.352 43.2432L660.139 45.5232L658.971 43.5534L656.737 44.0553L658.25 42.3361L657.082 40.3663Z" fill="black"/>
<line x1="666" y1="13.5" x2="678" y2="13.5" stroke="black"/>
<line x1="665" y1="18.5" x2="673" y2="18.5" stroke="black"/>
<line x1="669" y1="27.5" x2="675" y2="27.5" stroke="black"/>
<line x1="665" y1="52.5" x2="675" y2="52.5" stroke="black"/>
<line x1="663" y1="42.5" x2="670" y2="42.5" stroke="black"/>
<line x1="667" y1="47.5" x2="677" y2="47.5" stroke="black"/>
<path d="M638.244 27.5723L638.544 29.8423L640.796 30.2581L638.73 31.2453L639.03 33.5154L637.453 31.8555L635.387 32.8427L636.478 30.8296L634.901 29.1696L637.153 29.5854L638.244 27.5723Z" fill="black"/>
<path d="M633.082 53.3663L635.184 54.2735L636.697 52.5542L636.484 54.8342L638.586 55.7413L636.352 56.2432L636.139 58.5232L634.971 56.5534L632.737 57.0553L634.25 55.3361L633.082 53.3663Z" fill="black"/>
<line x1="642" y1="26.5" x2="654" y2="26.5" stroke="black"/>
<line x1="641" y1="31.5" x2="649" y2="31.5" stroke="black"/>
<line x1="645" y1="40.5" x2="651" y2="40.5" stroke="black"/>
<line x1="641" y1="65.5" x2="651" y2="65.5" stroke="black"/>
<line x1="639" y1="55.5" x2="646" y2="55.5" stroke="black"/>
<line x1="643" y1="60.5" x2="653" y2="60.5" stroke="black"/>
<path d="M615.244 14.5723L615.544 16.8423L617.796 17.2581L615.73 18.2453L616.03 20.5154L614.453 18.8555L612.387 19.8427L613.478 17.8296L611.901 16.1696L614.153 16.5854L615.244 14.5723Z" fill="black"/>
<path d="M610.082 40.3663L612.184 41.2735L613.697 39.5542L613.484 41.8342L615.586 42.7413L613.352 43.2432L613.139 45.5232L611.971 43.5534L609.737 44.0553L611.25 42.3361L610.082 40.3663Z" fill="black"/>
<line x1="619" y1="13.5" x2="631" y2="13.5" stroke="black"/>
<line x1="618" y1="18.5" x2="626" y2="18.5" stroke="black"/>
<line x1="622" y1="27.5" x2="628" y2="27.5" stroke="black"/>
<line x1="618" y1="52.5" x2="628" y2="52.5" stroke="black"/>
<line x1="616" y1="42.5" x2="623" y2="42.5" stroke="black"/>
<line x1="620" y1="47.5" x2="630" y2="47.5" stroke="black"/>
<path d="M592.244 10.5723L592.544 12.8423L594.796 13.2581L592.73 14.2453L593.03 16.5154L591.453 14.8555L589.387 15.8427L590.478 13.8296L588.901 12.1696L591.153 12.5854L592.244 10.5723Z" fill="black"/>
<path d="M587.082 36.3663L589.184 37.2735L590.697 35.5542L590.484 37.8342L592.586 38.7413L590.352 39.2432L590.139 41.5232L588.971 39.5534L586.737 40.0553L588.25 38.3361L587.082 36.3663Z" fill="black"/>
<line x1="596" y1="9.5" x2="608" y2="9.5" stroke="black"/>
<line x1="595" y1="14.5" x2="603" y2="14.5" stroke="black"/>
<line x1="599" y1="23.5" x2="605" y2="23.5" stroke="black"/>
<line x1="595" y1="48.5" x2="605" y2="48.5" stroke="black"/>
<line x1="593" y1="38.5" x2="600" y2="38.5" stroke="black"/>
<line x1="597" y1="43.5" x2="607" y2="43.5" stroke="black"/>
<path d="M568.244 23.5723L568.544 25.8423L570.796 26.2581L568.73 27.2453L569.03 29.5154L567.453 27.8555L565.387 28.8427L566.478 26.8296L564.901 25.1696L567.153 25.5854L568.244 23.5723Z" fill="black"/>
<path d="M563.082 49.3663L565.184 50.2735L566.697 48.5542L566.484 50.8342L568.586 51.7413L566.352 52.2432L566.139 54.5232L564.971 52.5534L562.737 53.0553L564.25 51.3361L563.082 49.3663Z" fill="black"/>
<line x1="572" y1="22.5" x2="584" y2="22.5" stroke="black"/>
<line x1="571" y1="27.5" x2="579" y2="27.5" stroke="black"/>
<line x1="575" y1="36.5" x2="581" y2="36.5" stroke="black"/>
<line x1="571" y1="61.5" x2="581" y2="61.5" stroke="black"/>
<line x1="569" y1="51.5" x2="576" y2="51.5" stroke="black"/>
<line x1="573" y1="56.5" x2="583" y2="56.5" stroke="black"/>
<path d="M544.244 18.5723L544.544 20.8423L546.796 21.2581L544.73 22.2453L545.03 24.5154L543.453 22.8555L541.387 23.8427L542.478 21.8296L540.901 20.1696L543.153 20.5854L544.244 18.5723Z" fill="black"/>
<path d="M539.082 44.3663L541.184 45.2735L542.697 43.5542L542.484 45.8342L544.586 46.7413L542.352 47.2432L542.139 49.5232L540.971 47.5534L538.737 48.0553L540.25 46.3361L539.082 44.3663Z" fill="black"/>
<line x1="548" y1="17.5" x2="560" y2="17.5" stroke="black"/>
<line x1="547" y1="22.5" x2="555" y2="22.5" stroke="black"/>
<line x1="551" y1="31.5" x2="557" y2="31.5" stroke="black"/>
<line x1="547" y1="56.5" x2="557" y2="56.5" stroke="black"/>
<line x1="545" y1="46.5" x2="552" y2="46.5" stroke="black"/>
<line x1="549" y1="51.5" x2="559" y2="51.5" stroke="black"/>
<path d="M521.244 14.5723L521.544 16.8423L523.796 17.2581L521.73 18.2453L522.03 20.5154L520.453 18.8555L518.387 19.8427L519.478 17.8296L517.901 16.1696L520.153 16.5854L521.244 14.5723Z" fill="black"/>
<path d="M516.082 40.3663L518.184 41.2735L519.697 39.5542L519.484 41.8342L521.586 42.7413L519.352 43.2432L519.139 45.5232L517.971 43.5534L515.737 44.0553L517.25 42.3361L516.082 40.3663Z" fill="black"/>
<line x1="525" y1="13.5" x2="537" y2="13.5" stroke="black"/>
<line x1="524" y1="18.5" x2="532" y2="18.5" stroke="black"/>
<line x1="528" y1="27.5" x2="534" y2="27.5" stroke="black"/>
<line x1="524" y1="52.5" x2="534" y2="52.5" stroke="black"/>
<line x1="522" y1="42.5" x2="529" y2="42.5" stroke="black"/>
<line x1="526" y1="47.5" x2="536" y2="47.5" stroke="black"/>
<path d="M497.244 27.5723L497.544 29.8423L499.796 30.2581L497.73 31.2453L498.03 33.5154L496.453 31.8555L494.387 32.8427L495.478 30.8296L493.901 29.1696L496.153 29.5854L497.244 27.5723Z" fill="black"/>
<path d="M492.082 53.3663L494.184 54.2735L495.697 52.5542L495.484 54.8342L497.586 55.7413L495.352 56.2432L495.139 58.5232L493.971 56.5534L491.737 57.0553L493.25 55.3361L492.082 53.3663Z" fill="black"/>
<line x1="501" y1="26.5" x2="513" y2="26.5" stroke="black"/>
<line x1="500" y1="31.5" x2="508" y2="31.5" stroke="black"/>
<line x1="504" y1="40.5" x2="510" y2="40.5" stroke="black"/>
<line x1="500" y1="65.5" x2="510" y2="65.5" stroke="black"/>
<line x1="498" y1="55.5" x2="505" y2="55.5" stroke="black"/>
<line x1="502" y1="60.5" x2="512" y2="60.5" stroke="black"/>
<path d="M475.244 18.5723L475.544 20.8423L477.796 21.2581L475.73 22.2453L476.03 24.5154L474.453 22.8555L472.387 23.8427L473.478 21.8296L471.901 20.1696L474.153 20.5854L475.244 18.5723Z" fill="black"/>
<path d="M470.082 44.3663L472.184 45.2735L473.697 43.5542L473.484 45.8342L475.586 46.7413L473.352 47.2432L473.139 49.5232L471.971 47.5534L469.737 48.0553L471.25 46.3361L470.082 44.3663Z" fill="black"/>
<line x1="479" y1="17.5" x2="491" y2="17.5" stroke="black"/>
<line x1="478" y1="22.5" x2="486" y2="22.5" stroke="black"/>
<line x1="482" y1="31.5" x2="488" y2="31.5" stroke="black"/>
<line x1="478" y1="56.5" x2="488" y2="56.5" stroke="black"/>
<line x1="476" y1="46.5" x2="483" y2="46.5" stroke="black"/>
<line x1="480" y1="51.5" x2="490" y2="51.5" stroke="black"/>
<path d="M452.244 14.5723L452.544 16.8423L454.796 17.2581L452.73 18.2453L453.03 20.5154L451.453 18.8555L449.387 19.8427L450.478 17.8296L448.901 16.1696L451.153 16.5854L452.244 14.5723Z" fill="black"/>
<path d="M447.082 40.3663L449.184 41.2735L450.697 39.5542L450.484 41.8342L452.586 42.7413L450.352 43.2432L450.139 45.5232L448.971 43.5534L446.737 44.0553L448.25 42.3361L447.082 40.3663Z" fill="black"/>
<line x1="456" y1="13.5" x2="468" y2="13.5" stroke="black"/>
<line x1="455" y1="18.5" x2="463" y2="18.5" stroke="black"/>
<line x1="459" y1="27.5" x2="465" y2="27.5" stroke="black"/>
<line x1="455" y1="52.5" x2="465" y2="52.5" stroke="black"/>
<line x1="453" y1="42.5" x2="460" y2="42.5" stroke="black"/>
<line x1="457" y1="47.5" x2="467" y2="47.5" stroke="black"/>
<path d="M428.244 27.5723L428.544 29.8423L430.796 30.2581L428.73 31.2453L429.03 33.5154L427.453 31.8555L425.387 32.8427L426.478 30.8296L424.901 29.1696L427.153 29.5854L428.244 27.5723Z" fill="black"/>
<path d="M423.082 53.3663L425.184 54.2735L426.697 52.5542L426.484 54.8342L428.586 55.7413L426.352 56.2432L426.139 58.5232L424.971 56.5534L422.737 57.0553L424.25 55.3361L423.082 53.3663Z" fill="black"/>
<line x1="432" y1="26.5" x2="444" y2="26.5" stroke="black"/>
<line x1="431" y1="31.5" x2="439" y2="31.5" stroke="black"/>
<line x1="435" y1="40.5" x2="441" y2="40.5" stroke="black"/>
<line x1="431" y1="65.5" x2="441" y2="65.5" stroke="black"/>
<line x1="429" y1="55.5" x2="436" y2="55.5" stroke="black"/>
<line x1="433" y1="60.5" x2="443" y2="60.5" stroke="black"/>
<path d="M405.244 14.5723L405.544 16.8423L407.796 17.2581L405.73 18.2453L406.03 20.5154L404.453 18.8555L402.387 19.8427L403.478 17.8296L401.901 16.1696L404.153 16.5854L405.244 14.5723Z" fill="black"/>
<path d="M400.082 40.3663L402.184 41.2735L403.697 39.5542L403.484 41.8342L405.586 42.7413L403.352 43.2432L403.139 45.5232L401.971 43.5534L399.737 44.0553L401.25 42.3361L400.082 40.3663Z" fill="black"/>
<line x1="409" y1="13.5" x2="421" y2="13.5" stroke="black"/>
<line x1="408" y1="18.5" x2="416" y2="18.5" stroke="black"/>
<line x1="412" y1="27.5" x2="418" y2="27.5" stroke="black"/>
<line x1="408" y1="52.5" x2="418" y2="52.5" stroke="black"/>
<line x1="406" y1="42.5" x2="413" y2="42.5" stroke="black"/>
<line x1="410" y1="47.5" x2="420" y2="47.5" stroke="black"/>
<path d="M382.244 10.5723L382.544 12.8423L384.796 13.2581L382.73 14.2453L383.03 16.5154L381.453 14.8555L379.387 15.8427L380.478 13.8296L378.901 12.1696L381.153 12.5854L382.244 10.5723Z" fill="black"/>
<path d="M377.082 36.3663L379.184 37.2735L380.697 35.5542L380.484 37.8342L382.586 38.7413L380.352 39.2432L380.139 41.5232L378.971 39.5534L376.737 40.0553L378.25 38.3361L377.082 36.3663Z" fill="black"/>
<line x1="386" y1="9.5" x2="398" y2="9.5" stroke="black"/>
<line x1="385" y1="14.5" x2="393" y2="14.5" stroke="black"/>
<line x1="389" y1="23.5" x2="395" y2="23.5" stroke="black"/>
<line x1="385" y1="48.5" x2="395" y2="48.5" stroke="black"/>
<line x1="383" y1="38.5" x2="390" y2="38.5" stroke="black"/>
<line x1="387" y1="43.5" x2="397" y2="43.5" stroke="black"/>
<path d="M358.244 23.5723L358.544 25.8423L360.796 26.2581L358.73 27.2453L359.03 29.5154L357.453 27.8555L355.387 28.8427L356.478 26.8296L354.901 25.1696L357.153 25.5854L358.244 23.5723Z" fill="black"/>
<path d="M353.082 49.3663L355.184 50.2735L356.697 48.5542L356.484 50.8342L358.586 51.7413L356.352 52.2432L356.139 54.5232L354.971 52.5534L352.737 53.0553L354.25 51.3361L353.082 49.3663Z" fill="black"/>
<line x1="362" y1="22.5" x2="374" y2="22.5" stroke="black"/>
<line x1="361" y1="27.5" x2="369" y2="27.5" stroke="black"/>
<line x1="365" y1="36.5" x2="371" y2="36.5" stroke="black"/>
<line x1="361" y1="61.5" x2="371" y2="61.5" stroke="black"/>
<line x1="359" y1="51.5" x2="366" y2="51.5" stroke="black"/>
<line x1="363" y1="56.5" x2="373" y2="56.5" stroke="black"/>
<path d="M334.244 9.57226L334.544 11.8423L336.796 12.2581L334.73 13.2453L335.03 15.5154L333.453 13.8555L331.387 14.8427L332.478 12.8296L330.901 11.1696L333.153 11.5854L334.244 9.57226Z" fill="black"/>
<path d="M329.082 35.3663L331.184 36.2735L332.697 34.5542L332.484 36.8342L334.586 37.7413L332.352 38.2432L332.139 40.5232L330.971 38.5534L328.737 39.0553L330.25 37.3361L329.082 35.3663Z" fill="black"/>
<line x1="338" y1="8.5" x2="350" y2="8.5" stroke="black"/>
<line x1="337" y1="13.5" x2="345" y2="13.5" stroke="black"/>
<line x1="341" y1="22.5" x2="347" y2="22.5" stroke="black"/>
<line x1="337" y1="47.5" x2="347" y2="47.5" stroke="black"/>
<line x1="335" y1="37.5" x2="342" y2="37.5" stroke="black"/>
<line x1="339" y1="42.5" x2="349" y2="42.5" stroke="black"/>
<path d="M311.244 5.57226L311.544 7.84234L313.796 8.25811L311.73 9.24532L312.03 11.5154L310.453 9.85546L308.387 10.8427L309.478 8.82955L307.901 7.16961L310.153 7.58538L311.244 5.57226Z" fill="black"/>
<path d="M306.082 31.3663L308.184 32.2735L309.697 30.5542L309.484 32.8342L311.586 33.7413L309.352 34.2432L309.139 36.5232L307.971 34.5534L305.737 35.0553L307.25 33.3361L306.082 31.3663Z" fill="black"/>
<line x1="315" y1="4.5" x2="327" y2="4.5" stroke="black"/>
<line x1="314" y1="9.5" x2="322" y2="9.5" stroke="black"/>
<line x1="318" y1="18.5" x2="324" y2="18.5" stroke="black"/>
<line x1="314" y1="43.5" x2="324" y2="43.5" stroke="black"/>
<line x1="312" y1="33.5" x2="319" y2="33.5" stroke="black"/>
<line x1="316" y1="38.5" x2="326" y2="38.5" stroke="black"/>
<path d="M287.244 18.5723L287.544 20.8423L289.796 21.2581L287.73 22.2453L288.03 24.5154L286.453 22.8555L284.387 23.8427L285.478 21.8296L283.901 20.1696L286.153 20.5854L287.244 18.5723Z" fill="black"/>
<path d="M282.082 44.3663L284.184 45.2735L285.697 43.5542L285.484 45.8342L287.586 46.7413L285.352 47.2432L285.139 49.5232L283.971 47.5534L281.737 48.0553L283.25 46.3361L282.082 44.3663Z" fill="black"/>
<line x1="291" y1="17.5" x2="303" y2="17.5" stroke="black"/>
<line x1="290" y1="22.5" x2="298" y2="22.5" stroke="black"/>
<line x1="294" y1="31.5" x2="300" y2="31.5" stroke="black"/>
<line x1="290" y1="56.5" x2="300" y2="56.5" stroke="black"/>
<line x1="288" y1="46.5" x2="295" y2="46.5" stroke="black"/>
<line x1="292" y1="51.5" x2="302" y2="51.5" stroke="black"/>
<path d="M264.244 5.57226L264.544 7.84234L266.796 8.25811L264.73 9.24532L265.03 11.5154L263.453 9.85546L261.387 10.8427L262.478 8.82955L260.901 7.16961L263.153 7.58538L264.244 5.57226Z" fill="black"/>
<path d="M259.082 31.3663L261.184 32.2735L262.697 30.5542L262.484 32.8342L264.586 33.7413L262.352 34.2432L262.139 36.5232L260.971 34.5534L258.737 35.0553L260.25 33.3361L259.082 31.3663Z" fill="black"/>
<line x1="268" y1="4.5" x2="280" y2="4.5" stroke="black"/>
<line x1="267" y1="9.5" x2="275" y2="9.5" stroke="black"/>
<line x1="271" y1="18.5" x2="277" y2="18.5" stroke="black"/>
<line x1="267" y1="43.5" x2="277" y2="43.5" stroke="black"/>
<line x1="265" y1="33.5" x2="272" y2="33.5" stroke="black"/>
<line x1="269" y1="38.5" x2="279" y2="38.5" stroke="black"/>
<path d="M241.244 1.57226L241.544 3.84234L243.796 4.25811L241.73 5.24532L242.03 7.5154L240.453 5.85546L238.387 6.84267L239.478 4.82955L237.901 3.16961L240.153 3.58538L241.244 1.57226Z" fill="black"/>
<path d="M236.082 27.3663L238.184 28.2735L239.697 26.5542L239.484 28.8342L241.586 29.7413L239.352 30.2432L239.139 32.5232L237.971 30.5534L235.737 31.0553L237.25 29.3361L236.082 27.3663Z" fill="black"/>
<line x1="245" y1="0.5" x2="257" y2="0.500001" stroke="black"/>
<line x1="244" y1="5.5" x2="252" y2="5.5" stroke="black"/>
<line x1="248" y1="14.5" x2="254" y2="14.5" stroke="black"/>
<line x1="244" y1="39.5" x2="254" y2="39.5" stroke="black"/>
<line x1="242" y1="29.5" x2="249" y2="29.5" stroke="black"/>
<line x1="246" y1="34.5" x2="256" y2="34.5" stroke="black"/>
<path d="M217.244 14.5723L217.544 16.8423L219.796 17.2581L217.73 18.2453L218.03 20.5154L216.453 18.8555L214.387 19.8427L215.478 17.8296L213.901 16.1696L216.153 16.5854L217.244 14.5723Z" fill="black"/>
<path d="M212.082 40.3663L214.184 41.2735L215.697 39.5542L215.484 41.8342L217.586 42.7413L215.352 43.2432L215.139 45.5232L213.971 43.5534L211.737 44.0553L213.25 42.3361L212.082 40.3663Z" fill="black"/>
<line x1="221" y1="13.5" x2="233" y2="13.5" stroke="black"/>
<line x1="220" y1="18.5" x2="228" y2="18.5" stroke="black"/>
<line x1="224" y1="27.5" x2="230" y2="27.5" stroke="black"/>
<line x1="220" y1="52.5" x2="230" y2="52.5" stroke="black"/>
<line x1="218" y1="42.5" x2="225" y2="42.5" stroke="black"/>
<line x1="222" y1="47.5" x2="232" y2="47.5" stroke="black"/>
<path d="M193.244 9.57226L193.544 11.8423L195.796 12.2581L193.73 13.2453L194.03 15.5154L192.453 13.8555L190.387 14.8427L191.478 12.8296L189.901 11.1696L192.153 11.5854L193.244 9.57226Z" fill="black"/>
<path d="M188.082 35.3663L190.184 36.2735L191.697 34.5542L191.484 36.8342L193.586 37.7413L191.352 38.2432L191.139 40.5232L189.971 38.5534L187.737 39.0553L189.25 37.3361L188.082 35.3663Z" fill="black"/>
<line x1="197" y1="8.5" x2="209" y2="8.5" stroke="black"/>
<line x1="196" y1="13.5" x2="204" y2="13.5" stroke="black"/>
<line x1="200" y1="22.5" x2="206" y2="22.5" stroke="black"/>
<line x1="196" y1="47.5" x2="206" y2="47.5" stroke="black"/>
<line x1="194" y1="37.5" x2="201" y2="37.5" stroke="black"/>
<line x1="198" y1="42.5" x2="208" y2="42.5" stroke="black"/>
<path d="M170.244 5.57226L170.544 7.84234L172.796 8.25811L170.73 9.24532L171.03 11.5154L169.453 9.85546L167.387 10.8427L168.478 8.82955L166.901 7.16961L169.153 7.58538L170.244 5.57226Z" fill="black"/>
<path d="M165.082 31.3663L167.184 32.2735L168.697 30.5542L168.484 32.8342L170.586 33.7413L168.352 34.2432L168.139 36.5232L166.971 34.5534L164.737 35.0553L166.25 33.3361L165.082 31.3663Z" fill="black"/>
<line x1="174" y1="4.5" x2="186" y2="4.5" stroke="black"/>
<line x1="173" y1="9.5" x2="181" y2="9.5" stroke="black"/>
<line x1="177" y1="18.5" x2="183" y2="18.5" stroke="black"/>
<line x1="173" y1="43.5" x2="183" y2="43.5" stroke="black"/>
<line x1="171" y1="33.5" x2="178" y2="33.5" stroke="black"/>
<line x1="175" y1="38.5" x2="185" y2="38.5" stroke="black"/>
<path d="M146.244 18.5723L146.544 20.8423L148.796 21.2581L146.73 22.2453L147.03 24.5154L145.453 22.8555L143.387 23.8427L144.478 21.8296L142.901 20.1696L145.153 20.5854L146.244 18.5723Z" fill="black"/>
<path d="M141.082 44.3663L143.184 45.2735L144.697 43.5542L144.484 45.8342L146.586 46.7413L144.352 47.2432L144.139 49.5232L142.971 47.5534L140.737 48.0553L142.25 46.3361L141.082 44.3663Z" fill="black"/>
<line x1="150" y1="17.5" x2="162" y2="17.5" stroke="black"/>
<line x1="149" y1="22.5" x2="157" y2="22.5" stroke="black"/>
<line x1="153" y1="31.5" x2="159" y2="31.5" stroke="black"/>
<line x1="149" y1="56.5" x2="159" y2="56.5" stroke="black"/>
<line x1="147" y1="46.5" x2="154" y2="46.5" stroke="black"/>
<line x1="151" y1="51.5" x2="161" y2="51.5" stroke="black"/>
<path d="M124.244 9.57226L124.544 11.8423L126.796 12.2581L124.73 13.2453L125.03 15.5154L123.453 13.8555L121.387 14.8427L122.478 12.8296L120.901 11.1696L123.153 11.5854L124.244 9.57226Z" fill="black"/>
<path d="M119.082 35.3663L121.184 36.2735L122.697 34.5542L122.484 36.8342L124.586 37.7413L122.352 38.2432L122.139 40.5232L120.971 38.5534L118.737 39.0553L120.25 37.3361L119.082 35.3663Z" fill="black"/>
<line x1="128" y1="8.5" x2="140" y2="8.5" stroke="black"/>
<line x1="127" y1="13.5" x2="135" y2="13.5" stroke="black"/>
<line x1="131" y1="22.5" x2="137" y2="22.5" stroke="black"/>
<line x1="127" y1="47.5" x2="137" y2="47.5" stroke="black"/>
<line x1="125" y1="37.5" x2="132" y2="37.5" stroke="black"/>
<line x1="129" y1="42.5" x2="139" y2="42.5" stroke="black"/>
<path d="M101.244 5.57226L101.544 7.84234L103.796 8.25811L101.73 9.24532L102.03 11.5154L100.453 9.85546L98.3869 10.8427L99.4782 8.82955L97.9008 7.16961L100.153 7.58538L101.244 5.57226Z" fill="black"/>
<path d="M96.0818 31.3663L98.1843 32.2735L99.6968 30.5542L99.4837 32.8342L101.586 33.7413L99.352 34.2432L99.1389 36.5232L97.9712 34.5534L95.737 35.0553L97.2495 33.3361L96.0818 31.3663Z" fill="black"/>
<line x1="105" y1="4.5" x2="117" y2="4.5" stroke="black"/>
<line x1="104" y1="9.5" x2="112" y2="9.5" stroke="black"/>
<line x1="108" y1="18.5" x2="114" y2="18.5" stroke="black"/>
<line x1="104" y1="43.5" x2="114" y2="43.5" stroke="black"/>
<line x1="102" y1="33.5" x2="109" y2="33.5" stroke="black"/>
<line x1="106" y1="38.5" x2="116" y2="38.5" stroke="black"/>
<path d="M77.2439 18.5723L77.5443 20.8423L79.7961 21.2581L77.73 22.2453L78.0304 24.5154L76.453 22.8555L74.3869 23.8427L75.4782 21.8296L73.9008 20.1696L76.1526 20.5854L77.2439 18.5723Z" fill="black"/>
<path d="M72.0818 44.3663L74.1843 45.2735L75.6968 43.5542L75.4837 45.8342L77.5862 46.7413L75.352 47.2432L75.1389 49.5232L73.9712 47.5534L71.737 48.0553L73.2495 46.3361L72.0818 44.3663Z" fill="black"/>
<line x1="81" y1="17.5" x2="93" y2="17.5" stroke="black"/>
<line x1="80" y1="22.5" x2="88" y2="22.5" stroke="black"/>
<line x1="84" y1="31.5" x2="90" y2="31.5" stroke="black"/>
<line x1="80" y1="56.5" x2="90" y2="56.5" stroke="black"/>
<line x1="78" y1="46.5" x2="85" y2="46.5" stroke="black"/>
<line x1="82" y1="51.5" x2="92" y2="51.5" stroke="black"/>
<path d="M54.2439 5.57226L54.5443 7.84234L56.7961 8.25811L54.73 9.24532L55.0304 11.5154L53.453 9.85546L51.3869 10.8427L52.4782 8.82955L50.9008 7.16961L53.1526 7.58538L54.2439 5.57226Z" fill="black"/>
<path d="M49.0818 31.3663L51.1843 32.2735L52.6968 30.5542L52.4837 32.8342L54.5862 33.7413L52.352 34.2432L52.1389 36.5232L50.9712 34.5534L48.737 35.0553L50.2495 33.3361L49.0818 31.3663Z" fill="black"/>
<line x1="58" y1="4.5" x2="70" y2="4.5" stroke="black"/>
<line x1="57" y1="9.5" x2="65" y2="9.5" stroke="black"/>
<line x1="61" y1="18.5" x2="67" y2="18.5" stroke="black"/>
<line x1="57" y1="43.5" x2="67" y2="43.5" stroke="black"/>
<line x1="55" y1="33.5" x2="62" y2="33.5" stroke="black"/>
<line x1="59" y1="38.5" x2="69" y2="38.5" stroke="black"/>
<path d="M31.2439 1.57226L31.5443 3.84234L33.7961 4.25811L31.73 5.24532L32.0304 7.5154L30.453 5.85546L28.3869 6.84267L29.4782 4.82955L27.9008 3.16961L30.1526 3.58538L31.2439 1.57226Z" fill="black"/>
<path d="M26.0818 27.3663L28.1843 28.2735L29.6968 26.5542L29.4837 28.8342L31.5862 29.7413L29.352 30.2432L29.1389 32.5232L27.9712 30.5534L25.737 31.0553L27.2495 29.3361L26.0818 27.3663Z" fill="black"/>
<line x1="35" y1="0.5" x2="47" y2="0.500001" stroke="black"/>
<line x1="34" y1="5.5" x2="42" y2="5.5" stroke="black"/>
<line x1="38" y1="14.5" x2="44" y2="14.5" stroke="black"/>
<line x1="34" y1="39.5" x2="44" y2="39.5" stroke="black"/>
<line x1="32" y1="29.5" x2="39" y2="29.5" stroke="black"/>
<line x1="36" y1="34.5" x2="46" y2="34.5" stroke="black"/>
<path d="M7.24388 14.5723L7.54431 16.8423L9.79611 17.2581L7.72998 18.2453L8.0304 20.5154L6.45304 18.8555L4.3869 19.8427L5.47817 17.8296L3.9008 16.1696L6.15261 16.5854L7.24388 14.5723Z" fill="black"/>
<path d="M2.08177 40.3663L4.18427 41.2735L5.69677 39.5542L5.48369 41.8342L7.5862 42.7413L5.35201 43.2432L5.13893 45.5232L3.9712 43.5534L1.73701 44.0553L3.2495 42.3361L2.08177 40.3663Z" fill="black"/>
<line x1="11" y1="13.5" x2="23" y2="13.5" stroke="black"/>
<line x1="10" y1="18.5" x2="18" y2="18.5" stroke="black"/>
<line x1="14" y1="27.5" x2="20" y2="27.5" stroke="black"/>
<line x1="10" y1="52.5" x2="20" y2="52.5" stroke="black"/>
<line x1="8" y1="42.5" x2="15" y2="42.5" stroke="black"/>
<line x1="12" y1="47.5" x2="22" y2="47.5" stroke="black"/>
<defs>
<clipPath id="clip0_114_661">
<rect width="51" height="51" fill="white" transform="translate(1627 12)"/>
</clipPath>
</defs>
</svg>
